<?xml version="1.0" encoding="utf-8"?><svg xmlns="http://www.w3.org/2000/svg" xmlns:xlink="http://www.w3.org/1999/xlink"><symbol fill="none" viewBox="0 0 13 18" id="android" xmlns="http://www.w3.org/2000/svg"><path d="M11.617 7.413H0v5.532h1.383v1.383h1.383v2.904h2.49v-2.904h2.489v2.904h2.489v-2.904h1.383v-1.383H13V7.413h-1.383zm.899-6.431L11.534 0 9.819 1.729A5.084 5.084 0 006.5.498c-1.272 0-2.434.47-3.32 1.23L1.453.015.47.996l1.77 1.77a5.06 5.06 0 00-.87 2.849v.415h10.233v-.415a5.06 5.06 0 00-.871-2.849L12.516.982zM5.809 4.647H4.426V3.264h1.383v1.383zm2.765 0H7.191V3.264h1.383v1.383z" fill="#82AF31"/></symbol><symbol fill="none" viewBox="0 0 13 17" id="apple" xmlns="http://www.w3.org/2000/svg"><path fill-rule="evenodd" clip-rule="evenodd" d="M10.858 9.04c-.018-2.147 1.653-3.192 1.73-3.24a3.8 3.8 0 00-1.277-1.21 3.547 3.547 0 00-1.653-.474c-1.231-.14-2.426.784-3.054.784-.64 0-1.607-.771-2.648-.75a3.733 3.733 0 00-1.906.606A4.043 4.043 0 00.674 6.28c-1.42 2.613-.361 6.456.999 8.568.68 1.034 1.475 2.19 2.515 2.15 1.018-.046 1.399-.692 2.626-.692 1.217 0 1.574.692 2.635.666 1.093-.02 1.78-1.04 2.437-2.084A8.803 8.803 0 0013 12.475a3.573 3.573 0 01-1.557-1.375 3.9 3.9 0 01-.585-2.06zM8.854 2.724A3.96 3.96 0 009.672 0c-.793.037-1.784.583-2.354 1.296-.505.627-.956 1.656-.84 2.623.891.072 1.804-.476 2.376-1.195z" fill="#82AF31"/></symbol><symbol fill="none" viewBox="0 0 11 7" id="arrow-bottom" xmlns="http://www.w3.org/2000/svg"><path d="M10 1.172L5.596 5 1 1"/></symbol><symbol fill="none" viewBox="0 0 16 17" id="calendar" xmlns="http://www.w3.org/2000/svg"><path d="M13.747 2.775h-1.772V1.627a.726.726 0 10-1.45 0v1.148h-5.05V1.627a.726.726 0 10-1.45 0v1.148H2.253C1.505 2.775.9 3.381.9 4.128v10.62c0 .748.606 1.352 1.353 1.352h11.494c.748 0 1.353-.606 1.353-1.353V4.128c0-.748-.606-1.352-1.353-1.352zm-1.772 1.973v-.522l1.26.001h.415v3.648l-.002 4.584v2.191h-5.65l-3.952-.001H2.744l-.365-.001H2.35v-2.19l.001-4.583.001-2.417V4.225h1.673v.523a.726.726 0 101.45 0v-.523l5.05.001v.522a.726.726 0 101.45 0zm1.772 9.967v-.065s0 0 0 0v.065zm-11.397.032s0 0 0 0h-.1.1z" fill="#fff" stroke="#fff" stroke-width=".2"/></symbol><symbol fill="none" viewBox="0 0 17 16" id="envelope" xmlns="http://www.w3.org/2000/svg"><path d="M5.618 11.988l-1.704 1.65v-1.932H1V1h15v10.706H5.909l-.29.282zM1 .94s0 0 0 0h0zM.971.985L.93.94l.042.044z" stroke="#fff" stroke-width="2"/></symbol><symbol viewBox="0 0 20 15" id="eye" xmlns="http://www.w3.org/2000/svg"><path fill-rule="evenodd" clip-rule="evenodd" d="M16.992 11.797c-1.765 1.603-3.432 2.358-4.046 2.602a7.521 7.521 0 01-5.653.097l-.027-.004s-2.118-.727-4.454-2.851C1.024 10.014 0 8.08 0 7.52c0-.481.587-1.976 2.617-3.965C5.154 1.07 7.266.508 7.266.508l.029-.005a7.52 7.52 0 015.803.165c.69.296 2.175 1.025 3.738 2.379C19.129 5.033 20 6.915 20 7.52c0 .585-.958 2.415-3.008 4.277zM10 2.5a5 5 0 100 10 5 5 0 000-10zm0 7.5a2.5 2.5 0 01-2.5-2.5v-.002l.078.002A2.422 2.422 0 0010 5.078L9.998 5H10a2.5 2.5 0 010 5z"/></symbol><symbol fill="none" viewBox="0 0 22 16" id="money" xmlns="http://www.w3.org/2000/svg"><rect x="22" width="16" height="22" rx="2" transform="rotate(90 22 0)" fill="#82AF31"/><path stroke="#fff" stroke-width="1.3" stroke-dasharray="2 2" d="M19.35 2.65v10.7H3.65V2.65z"/><path d="M12.086 9.504c0-.214-.06-.383-.18-.508-.117-.128-.318-.245-.601-.351a7.435 7.435 0 01-.735-.317 2.473 2.473 0 01-.53-.363 1.52 1.52 0 01-.345-.485 1.642 1.642 0 01-.12-.66c0-.44.14-.8.421-1.082.281-.281.655-.445 1.121-.492V4.41h.625v.848c.461.065.822.258 1.082.578.26.318.39.73.39 1.238h-1.128c0-.312-.065-.545-.195-.699a.631.631 0 00-.516-.234c-.213 0-.379.06-.496.183-.117.12-.176.287-.176.5a.66.66 0 00.172.477c.115.12.327.242.637.367.312.125.569.243.77.355.2.11.369.235.507.375.138.138.244.297.316.477.073.177.11.384.11.621 0 .443-.138.802-.414 1.078-.276.276-.656.439-1.14.489v.777h-.622v-.774c-.534-.057-.948-.246-1.242-.566-.292-.323-.438-.751-.438-1.285h1.13c0 .31.072.548.218.715.148.164.36.246.637.246.229 0 .41-.06.543-.18a.637.637 0 00.199-.492z" fill="#fff"/></symbol><symbol fill="none" viewBox="0 0 16 19" id="prise" xmlns="http://www.w3.org/2000/svg"><path fill-rule="evenodd" clip-rule="evenodd" d="M7.563 10.169v7.956c-1.905 0-3.782.055-5.63-.057-.813 0-.953-.532-.953-1.092-.028-2.241 0-4.482 0-6.807h6.583zm1.093 8.011v-8.01h6.555v6.835c0 .812-.645 1.176-1.401 1.176H8.656zM8.095 3.054c.617-.757 1.121-1.485 1.737-2.157.869-.953 1.99-1.12 2.97-.56.924.532 1.428 1.624 1.176 2.633-.308 1.148-1.12 1.793-2.437 1.82-2.325.029-4.65.029-6.975 0-1.289-.027-2.073-.672-2.353-1.876-.224-.98.224-2.017 1.12-2.55.98-.588 2.017-.476 2.914.42.644.701 1.204 1.485 1.848 2.27zm-.728.756c-.728-.924-1.176-1.709-1.849-2.269-.392-.308-1.176-.476-1.624-.28-.393.168-.869.728-.729 1.429.084.476.757.924 1.233 1.036.868.224 1.765.084 2.97.084zm1.457.028c1.232.056 2.129.112 2.941-.084.868-.196 1.177-.756 1.26-1.26.057-.365-.223-1.037-.7-1.233-.448-.196-1.232-.056-1.596.252-.7.532-1.373 1.653-1.905 2.325zM7.563 5.855v3.221H2.241C.504 9.076 0 9.272 0 7.256c0-.589.112-1.373 1.177-1.401 2.072-.056 4.145 0 6.386 0zm1.093 3.221V5.855c2.24 0 4.426-.028 6.61.028.841.056.729 1.12.729 1.176 0 2.27-.252 2.045-2.185 2.017H8.656z" fill="#82AF31"/></symbol></svg>