<svg width="13" height="18" viewBox="0 0 13 18" fill="none" xmlns="http://www.w3.org/2000/svg">
<path d="M11.617 7.41284H1.38298H0V12.9448H1.38298V14.3277H2.76596V17.232H5.25532V14.3277H7.74468V17.232H10.234V14.3277H11.617V12.9448H13V7.41284H11.617Z" fill="#82AF31"/>
<path d="M12.516 0.981915L11.534 0L9.81915 1.72872C8.93404 0.968085 7.77234 0.497872 6.5 0.497872C5.22766 0.497872 4.06596 0.968085 3.18085 1.72872L1.45213 0.0138298L0.470215 0.995745L2.24043 2.76596C1.68724 3.58191 1.36915 4.56383 1.36915 5.61489V6.02979H11.6032V5.61489C11.6032 4.56383 11.2851 3.58191 10.7319 2.76596L12.516 0.981915ZM5.80851 4.64681H4.42553V3.26383H5.80851V4.64681ZM8.57447 4.64681H7.19149V3.26383H8.57447V4.64681Z" fill="#82AF31"/>
</svg>
