<svg width="13" height="17" viewBox="0 0 13 17" fill="none" xmlns="http://www.w3.org/2000/svg">
<path fill-rule="evenodd" clip-rule="evenodd" d="M10.858 9.04021C10.8399 6.89267 12.5108 5.8484 12.5873 5.80034C12.2562 5.29677 11.819 4.88227 11.3105 4.58984C10.8021 4.29742 10.2363 4.13515 9.65843 4.11595C8.4266 3.97613 7.23179 4.90025 6.60395 4.90025C5.96377 4.90025 4.99723 4.12905 3.95583 4.1509C3.2821 4.17412 2.62555 4.38258 2.05032 4.75592C1.47509 5.12926 1.00084 5.65472 0.673899 6.28096C-0.745069 8.89384 0.312986 12.7367 1.67273 14.8493C2.35301 15.8826 3.14784 17.0383 4.18821 16.999C5.20596 16.9531 5.58661 16.3065 6.81433 16.3065C8.03135 16.3065 8.38836 16.999 9.44929 16.9728C10.5417 16.9531 11.2294 15.9329 11.8858 14.8886C12.3744 14.1512 12.7504 13.3365 13 12.4745C12.3651 12.1885 11.8235 11.7104 11.4426 11.0997C11.0617 10.4891 10.8584 9.77279 10.858 9.04021ZM8.85374 2.7243C9.44973 1.9639 9.74313 0.98657 9.6716 0C8.87944 0.0371396 7.88842 0.583322 7.31796 1.29553C6.81309 1.92253 6.36211 2.95151 6.47871 3.91932C7.36896 3.99141 8.28245 3.44306 8.85374 2.7243Z" fill="#82AF31"/>
</svg>
