<svg width="16" height="17" viewBox="0 0 16 17" fill="none" xmlns="http://www.w3.org/2000/svg">
<path d="M13.7469 2.775H11.975V1.62683C11.975 1.22535 11.6506 0.9 11.25 0.9C10.8467 0.9 10.525 1.22594 10.525 1.62683V2.775H5.475V1.62683C5.475 1.22535 5.15065 0.9 4.75 0.9C4.34666 0.9 4.025 1.22594 4.025 1.62683V2.775H2.25309C1.50543 2.775 0.9 3.38053 0.9 4.12753V14.7475C0.9 15.4956 1.50589 16.1 2.25309 16.1H13.7469C14.4946 16.1 15.1 15.4945 15.1 14.7475V4.12753C15.1 3.37944 14.4941 2.775 13.7469 2.775ZM11.975 4.74817V4.22644C12.4946 4.2266 12.9274 4.22686 13.2355 4.22709L13.6156 4.2274L13.65 4.22744V4.22932L13.6499 4.51003L13.6498 5.45986L13.6493 7.87499C13.6491 9.40392 13.6488 11.1227 13.6484 12.4592L13.6477 14.1057L13.6473 14.5799L13.6472 14.65L13.6178 14.65L13.2529 14.65L11.9505 14.6499L7.99847 14.6494C6.56136 14.6492 5.12425 14.6489 4.04642 14.6486L2.74407 14.6481L2.37924 14.6478L2.35001 14.6477L2.35002 14.5776L2.35007 14.1036L2.35028 12.4578L2.35113 7.87502L2.35204 5.45816L2.35258 4.50781L2.35284 4.227L2.35285 4.22501L4.025 4.22513V4.74817C4.025 5.14965 4.34935 5.475 4.75 5.475C5.15334 5.475 5.475 5.14906 5.475 4.74817V4.22526C7.30064 4.22544 8.69882 4.22571 10.525 4.22609V4.74817C10.525 5.14965 10.8494 5.475 11.25 5.475C11.6533 5.475 11.975 5.14906 11.975 4.74817ZM13.7469 14.7152C13.7469 14.6555 13.7469 14.6505 13.7468 14.65C13.7468 14.65 13.7469 14.65 13.7469 14.65V14.7152ZM2.34999 14.7474C2.34999 14.7474 2.35 14.7475 2.35 14.7475H2.25L2.34999 14.7474Z" fill="white" stroke="white" stroke-width="0.2"/>
</svg>
