<svg width="20" height="15" viewBox="0 0 20 15" xmlns="http://www.w3.org/2000/svg">
<path fill-rule="evenodd" clip-rule="evenodd" d="M16.9922 11.7969C15.2266 13.4004 13.5605 14.1551 12.9457 14.399C11.1458 15.1653 9.11813 15.2001 7.29297 14.4961L7.26563 14.4922C7.26563 14.4922 5.14805 13.7651 2.8125 11.6406C1.02383 10.0137 0 8.08132 0 7.51952C0 7.03905 0.587109 5.54382 2.61719 3.55468C5.15352 1.06961 7.26563 0.507811 7.26563 0.507811L7.29453 0.50328C8.22454 0.1448 9.21652 -0.0252458 10.2128 0.00302645C11.2091 0.0312987 12.1899 0.257325 13.0981 0.667968C13.7879 0.96367 15.2727 1.69285 16.8359 3.04687C19.1285 5.03288 20 6.91503 20 7.51952C20 8.10514 19.0418 9.93534 16.9922 11.7969ZM10 2.5C9.01109 2.5 8.04439 2.79324 7.22215 3.34265C6.3999 3.89205 5.75904 4.67295 5.3806 5.58657C5.00216 6.5002 4.90315 7.50554 5.09607 8.47544C5.289 9.44534 5.7652 10.3363 6.46447 11.0355C7.16373 11.7348 8.05464 12.211 9.02455 12.4039C9.99445 12.5968 10.9998 12.4978 11.9134 12.1194C12.827 11.7409 13.6079 11.1001 14.1573 10.2778C14.7068 9.45559 15 8.48889 15 7.49999C15 6.17391 14.4732 4.90214 13.5355 3.96446C12.5979 3.02678 11.3261 2.5 10 2.5ZM10 9.99999C9.33696 9.99999 8.70107 9.73659 8.23223 9.26775C7.76339 8.79891 7.5 8.16303 7.5 7.49999V7.498C7.52617 7.49886 7.55195 7.49999 7.57813 7.49999C8.22045 7.49999 8.83646 7.24483 9.29065 6.79064C9.74484 6.33645 10 5.72044 10 5.07812C10 5.05195 9.99883 5.02601 9.99805 4.99999H10C10.663 4.99999 11.2989 5.26338 11.7678 5.73223C12.2366 6.20107 12.5 6.83695 12.5 7.49999C12.5 8.16303 12.2366 8.79891 11.7678 9.26775C11.2989 9.73659 10.663 9.99999 10 9.99999Z"/>
</svg>
