<svg width="22" height="16" viewBox="0 0 22 16" fill="none" xmlns="http://www.w3.org/2000/svg">
<rect x="22" width="16" height="22" rx="2" transform="rotate(90 22 0)" fill="#82AF31"/>
<rect x="19.35" y="2.65" width="10.7" height="15.7" transform="rotate(90 19.35 2.65)" stroke="white" stroke-width="1.3" stroke-dasharray="2 2"/>
<path d="M12.0859 9.50391C12.0859 9.29036 12.026 9.12109 11.9062 8.99609C11.7891 8.86849 11.5885 8.7513 11.3047 8.64453C11.0208 8.53776 10.776 8.43229 10.5703 8.32812C10.3646 8.22135 10.1875 8.10026 10.0391 7.96484C9.89323 7.82682 9.77865 7.66536 9.69531 7.48047C9.61458 7.29557 9.57422 7.07552 9.57422 6.82031C9.57422 6.38021 9.71484 6.01953 9.99609 5.73828C10.2773 5.45703 10.651 5.29297 11.1172 5.24609V4.41016H11.7422V5.25781C12.2031 5.32292 12.5638 5.51562 12.8242 5.83594C13.0846 6.15365 13.2148 6.56641 13.2148 7.07422H12.0859C12.0859 6.76172 12.0208 6.52865 11.8906 6.375C11.763 6.21875 11.5911 6.14062 11.375 6.14062C11.1615 6.14062 10.9961 6.20182 10.8789 6.32422C10.7617 6.44401 10.7031 6.61068 10.7031 6.82422C10.7031 7.02214 10.7604 7.18099 10.875 7.30078C10.9896 7.42057 11.2018 7.54297 11.5117 7.66797C11.8242 7.79297 12.0807 7.91146 12.2812 8.02344C12.4818 8.13281 12.651 8.25781 12.7891 8.39844C12.9271 8.53646 13.0326 8.69531 13.1055 8.875C13.1784 9.05208 13.2148 9.25911 13.2148 9.49609C13.2148 9.9388 13.0768 10.2982 12.8008 10.5742C12.5247 10.8503 12.1445 11.013 11.6602 11.0625V11.8398H11.0391V11.0664C10.5052 11.0091 10.0911 10.8203 9.79688 10.5C9.50521 10.1771 9.35938 9.7487 9.35938 9.21484H10.4883C10.4883 9.52474 10.5612 9.76302 10.707 9.92969C10.8555 10.0938 11.0677 10.1758 11.3438 10.1758C11.5729 10.1758 11.7539 10.1159 11.8867 9.99609C12.0195 9.8737 12.0859 9.70964 12.0859 9.50391Z" fill="white"/>
</svg>
