<svg width="16" height="19" viewBox="0 0 16 19" fill="none" xmlns="http://www.w3.org/2000/svg">
<path fill-rule="evenodd" clip-rule="evenodd" d="M7.56313 10.1689C7.56313 12.8301 7.56313 15.4073 7.56313 18.1245C5.65829 18.1245 3.78146 18.1805 1.93264 18.0684C1.12029 18.0684 0.980223 17.5362 0.980223 16.976C0.952211 14.735 0.980223 12.494 0.980223 10.1689C3.22121 10.1689 5.35015 10.1689 7.56313 10.1689Z" fill="#82AF31"/>
<path fill-rule="evenodd" clip-rule="evenodd" d="M8.65576 18.1805C8.65576 15.4633 8.65576 12.8581 8.65576 10.1689C10.8127 10.1689 12.9417 10.1689 15.2107 10.1689C15.2107 12.466 15.2107 14.7069 15.2107 17.004C15.2107 17.8163 14.5664 18.1805 13.81 18.1805C12.1573 18.1805 10.4766 18.1805 8.65576 18.1805Z" fill="#82AF31"/>
<path fill-rule="evenodd" clip-rule="evenodd" d="M8.09547 3.05379C8.71174 2.29745 9.21596 1.56913 9.83223 0.896836C10.7006 -0.055584 11.8211 -0.223658 12.8015 0.336589C13.726 0.868824 14.2302 1.96131 13.9781 2.96975C13.6699 4.11826 12.8576 4.76254 11.541 4.79056C9.21596 4.81857 6.89093 4.81857 4.56591 4.79056C3.27734 4.76254 2.49299 4.11826 2.21287 2.91373C1.98877 1.93329 2.43697 0.896836 3.33336 0.364602C4.3138 -0.223658 5.35025 -0.111609 6.24665 0.784787C6.89093 1.4851 7.45118 2.26944 8.09547 3.05379ZM7.36715 3.81012C6.63882 2.88571 6.19063 2.10137 5.51833 1.54112C5.12616 1.23298 4.34181 1.06491 3.89361 1.261C3.50144 1.42907 3.02523 1.98932 3.16529 2.68963C3.24933 3.16584 3.92162 3.61404 4.39783 3.72609C5.26622 3.95018 6.16261 3.81012 7.36715 3.81012ZM8.82379 3.83814C10.0563 3.89416 10.9527 3.95018 11.7651 3.7541C12.6335 3.55801 12.9416 2.99776 13.0256 2.49354C13.0817 2.12938 12.8015 1.45708 12.3253 1.261C11.8771 1.06491 11.0928 1.20497 10.7286 1.51311C10.0283 2.04534 9.35602 3.16584 8.82379 3.83814Z" fill="#82AF31"/>
<path fill-rule="evenodd" clip-rule="evenodd" d="M7.56334 5.85498C7.56334 6.97547 7.56334 7.95591 7.56334 9.0764C6.38682 9.0764 5.23831 9.0764 4.08981 9.0764C3.47353 9.0764 2.85726 9.0764 2.24099 9.0764C0.504223 9.0764 0 9.27249 0 7.2556C0 6.66734 0.112049 5.88299 1.17652 5.85498C3.24943 5.79895 5.32235 5.85498 7.56334 5.85498Z" fill="#82AF31"/>
<path fill-rule="evenodd" clip-rule="evenodd" d="M8.65576 9.07633C8.65576 7.87179 8.65576 6.91937 8.65576 5.8549C10.8968 5.8549 13.0817 5.82689 15.2667 5.88292C16.1071 5.93894 15.995 7.00341 15.995 7.05944C15.995 9.32844 15.7429 9.10434 13.81 9.07633C12.1013 9.07633 10.3925 9.07633 8.65576 9.07633Z" fill="#82AF31"/>
</svg>
