<svg width="15" height="16" viewBox="0 0 15 16" fill="none" xmlns="http://www.w3.org/2000/svg">
<path d="M11.4929 0H13.8269C14.4737 0 15 0.561001 15 1.251V8.749C15 9.4385 14.4737 10 13.8269 10H11.4929C10.9405 10 10.4758 9.5906 10.3517 9.0417C10.3305 8.94776 10.3193 8.84975 10.3193 8.749V1.80925V1.251C10.3193 0.561001 10.846 0 11.4929 0ZM13.8269 9C13.9563 9 14.0619 8.8875 14.0619 8.749V1.251C14.0619 1.113 13.9563 1 13.8269 1H11.4929C11.3629 1 11.2574 1.113 11.2574 1.251V8.749C11.2574 8.8875 11.3629 9 11.4929 9H13.8269Z" fill="#E62D1B"/>
<path d="M2.89549 0H8.58047C8.86988 0 9.15929 0.0730009 9.41868 0.211L10.9985 1.053C11.2302 1.1765 11.324 1.477 11.2081 1.724C11.0923 1.971 10.8108 2.071 10.5787 1.9475L10.3193 1.80925L8.99887 1.1055C8.86941 1.0365 8.72494 1 8.58047 1H2.89549C2.72429 1 2.56481 1.0985 2.47944 1.2575L1.94987 2.2455C1.28803 3.48 0.938115 4.885 0.938115 6.307V7.999C0.938115 8.551 1.35933 9 1.87717 9H5.40777C5.71875 9 6.00863 9.164 6.18312 9.4385C6.35714 9.713 6.39232 10.061 6.27693 10.3685C5.84681 11.5145 5.62869 12.722 5.62869 13.9575V14.537C5.62869 14.792 5.82335 15 6.06304 15H6.3548C6.54758 15 6.71925 14.862 6.77226 14.6645L6.95613 13.979C7.35014 12.5105 8.00353 11.1615 8.8985 9.9685C9.26767 9.47619 9.78209 9.15182 10.3517 9.0417C10.4943 9.01414 10.6403 9 10.7883 9H12.1955C12.4544 9 12.6646 9.224 12.6646 9.5C12.6646 9.776 12.4544 10 12.1955 10H10.7883C10.3357 10 9.91354 10.2165 9.63069 10.5935C8.81406 11.6825 8.21742 12.914 7.85813 14.254L7.67425 14.9395C7.5068 15.5635 6.9641 16 6.3548 16H6.06304C5.30598 16 4.69058 15.344 4.69058 14.537V13.9575C4.69058 12.594 4.93167 11.2615 5.40589 9.997L1.87717 10C0.841959 10 0 9.1025 0 7.999V6.307C0 4.711 0.392601 3.1345 1.13559 1.749L1.66515 0.761C1.91704 0.2915 2.38844 0 2.89549 0Z" fill="#E62D1B"/>
<path d="M12.6646 2C12.4055 2 12.1955 2.22386 12.1955 2.5C12.1955 2.77614 12.4055 3 12.6646 3C12.9236 3 13.1336 2.77614 13.1336 2.5C13.1336 2.22386 12.9236 2 12.6646 2Z" fill="#E62D1B"/>
<path d="M10.3517 9.0417C10.3305 8.94776 10.3193 8.84975 10.3193 8.749V1.80925L8.99887 1.1055C8.86941 1.0365 8.72494 1 8.58047 1H2.89549C2.72429 1 2.56481 1.0985 2.47944 1.2575L1.94987 2.2455C1.28803 3.48 0.938115 4.885 0.938115 6.307V7.999C0.938115 8.551 1.35933 9 1.87717 9H5.40777C5.71875 9 6.00863 9.164 6.18312 9.4385C6.35714 9.713 6.39232 10.061 6.27693 10.3685C5.84681 11.5145 5.62869 12.722 5.62869 13.9575V14.537C5.62869 14.792 5.82335 15 6.06304 15H6.3548C6.54758 15 6.71925 14.862 6.77226 14.6645L6.95613 13.979C7.35014 12.5105 8.00353 11.1615 8.8985 9.9685C9.26767 9.47619 9.78209 9.15182 10.3517 9.0417Z" fill="#E62D1B"/>
</svg>
