<svg width="15" height="16" viewBox="0 0 15 16" fill="none" xmlns="http://www.w3.org/2000/svg">
<path d="M3.50715 16H1.17311C0.526283 16 0 15.439 0 14.749V7.251C0 6.5615 0.526283 6 1.17311 6H3.50715C4.05946 6 4.52423 6.4094 4.64826 6.9583C4.66948 7.05224 4.68073 7.15025 4.68073 7.251V14.1908V14.749C4.68073 15.439 4.15398 16 3.50715 16ZM1.17311 7C1.04365 7 0.938116 7.1125 0.938116 7.251V14.749C0.938116 14.887 1.04365 15 1.17311 15H3.50715C3.63707 15 3.74261 14.887 3.74261 14.749V14.5199V14.4788V7.251C3.74261 7.1125 3.63707 7 3.50715 7H1.17311Z" fill="#82AF31"/>
<path d="M12.1045 16H6.41953C6.13012 16 5.84071 15.927 5.58132 15.789L4.00153 14.947C3.84333 14.8627 3.74941 14.6958 3.74261 14.5199C3.74209 14.5062 3.74208 14.4926 3.74261 14.4788C3.74526 14.4103 3.76124 14.3413 3.79186 14.276C3.90772 14.029 4.18916 13.929 4.42134 14.0525L4.68073 14.1908L6.00113 14.8945C6.13059 14.9635 6.27506 15 6.41953 15H12.1045C12.2757 15 12.4352 14.9015 12.5206 14.7425L13.0501 13.7545C13.712 12.52 14.0619 11.115 14.0619 9.693V8.001C14.0619 7.449 13.6407 7 13.1228 7H9.59223C9.28125 7 8.99137 6.836 8.81688 6.5615C8.64286 6.287 8.60768 5.939 8.72307 5.6315C9.15319 4.4855 9.37131 3.278 9.37131 2.0425V1.463C9.37131 1.208 9.17665 1 8.93696 1H8.6452C8.45242 1 8.28075 1.138 8.22774 1.3355L8.04387 2.021C7.64986 3.4895 6.99647 4.8385 6.1015 6.0315C5.73233 6.52381 5.21791 6.84818 4.64826 6.9583C4.50572 6.98586 4.35972 7 4.21167 7H2.8045C2.54558 7 2.33544 6.776 2.33544 6.5C2.33544 6.224 2.54558 6 2.8045 6H4.21167C4.66431 6 5.08646 5.7835 5.36931 5.4065C6.18594 4.3175 6.78258 3.086 7.14187 1.746L7.32575 1.0605C7.4932 0.4365 8.0359 0 8.6452 0H8.93696C9.69402 0 10.3094 0.656 10.3094 1.463V2.0425C10.3094 3.406 10.0683 4.7385 9.59411 6.003L13.1228 6C14.158 6 15 6.8975 15 8.001V9.693C15 11.289 14.6074 12.8655 13.8644 14.251L13.3348 15.239C13.083 15.7085 12.6116 16 12.1045 16Z" fill="#82AF31"/>
<path d="M4.64826 6.9583C4.66948 7.05224 4.68073 7.15025 4.68073 7.251V14.1908L6.00113 14.8945C6.13059 14.9635 6.27506 15 6.41953 15H12.1045C12.2757 15 12.4352 14.9015 12.5206 14.7425L13.0501 13.7545C13.712 12.52 14.0619 11.115 14.0619 9.693V8.001C14.0619 7.449 13.6407 7 13.1228 7H9.59223C9.28125 7 8.99137 6.836 8.81688 6.5615C8.64286 6.287 8.60768 5.939 8.72307 5.6315C9.15319 4.4855 9.37131 3.278 9.37131 2.0425V1.463C9.37131 1.208 9.17665 1 8.93696 1H8.6452C8.45242 1 8.28075 1.138 8.22774 1.3355L8.04387 2.021C7.64986 3.4895 6.99647 4.8385 6.1015 6.0315C5.73233 6.52381 5.21791 6.84818 4.64826 6.9583Z" fill="#82AF31"/>
<path d="M2.8045 13.5C2.8045 13.7761 2.59449 14 2.33544 14C2.07639 14 1.86638 13.7761 1.86638 13.5C1.86638 13.2239 2.07639 13 2.33544 13C2.59449 13 2.8045 13.2239 2.8045 13.5Z" fill="#82AF31"/>
</svg>
