<svg width="15" height="17" viewBox="0 0 15 17" fill="none" xmlns="http://www.w3.org/2000/svg">
<path d="M3.50715 16.1281H1.17311C0.526283 16.1281 0 15.5671 0 14.8771V7.37905C0 6.68955 0.526283 6.12805 1.17311 6.12805H3.50715C4.15398 6.12805 4.68073 6.68955 4.68073 7.37905V14.8771C4.68073 15.5671 4.15398 16.1281 3.50715 16.1281ZM1.17311 7.12805C1.04365 7.12805 0.938116 7.24055 0.938116 7.37905V14.8771C0.938116 15.0151 1.04365 15.1281 1.17311 15.1281H3.50715C3.63707 15.1281 3.74261 15.0151 3.74261 14.8771V7.37905C3.74261 7.24055 3.63707 7.12805 3.50715 7.12805H1.17311Z" fill="#82AF31"/>
<path d="M12.1045 16.1281H6.41953C6.13012 16.1281 5.84071 16.0551 5.58132 15.9171L4.00153 15.0751C3.76982 14.9516 3.67601 14.6511 3.79186 14.4041C3.90772 14.1571 4.18916 14.0571 4.42134 14.1806L6.00113 15.0226C6.13059 15.0916 6.27506 15.1281 6.41953 15.1281H12.1045C12.2757 15.1281 12.4352 15.0296 12.5206 14.8706L13.0501 13.8826C13.712 12.6481 14.0619 11.2431 14.0619 9.82105V8.12905C14.0619 7.57705 13.6407 7.12805 13.1228 7.12805H9.59223C9.28125 7.12805 8.99137 6.96405 8.81688 6.68955C8.64286 6.41505 8.60768 6.06705 8.72307 5.75955C9.15319 4.61355 9.37131 3.40605 9.37131 2.17055V1.59105C9.37131 1.33605 9.17665 1.12805 8.93696 1.12805H8.6452C8.45242 1.12805 8.28075 1.26605 8.22774 1.46355L8.04387 2.14905C7.64986 3.61755 6.99647 4.96655 6.1015 6.15955C5.63995 6.77505 4.95137 7.12805 4.21167 7.12805H2.8045C2.54558 7.12805 2.33544 6.90405 2.33544 6.62805C2.33544 6.35205 2.54558 6.12805 2.8045 6.12805H4.21167C4.66431 6.12805 5.08646 5.91155 5.36931 5.53455C6.18594 4.44555 6.78258 3.21405 7.14187 1.87405L7.32575 1.18855C7.4932 0.564552 8.0359 0.128052 8.6452 0.128052H8.93696C9.69402 0.128052 10.3094 0.784052 10.3094 1.59105V2.17055C10.3094 3.53405 10.0683 4.86655 9.59411 6.13105L13.1228 6.12805C14.158 6.12805 15 7.02555 15 8.12905V9.82105C15 11.4171 14.6074 12.9936 13.8644 14.3791L13.3348 15.3671C13.083 15.8366 12.6116 16.1281 12.1045 16.1281Z" fill="#82AF31"/>
<path d="M2.33544 14.1281C2.59449 14.1281 2.8045 13.9042 2.8045 13.6281C2.8045 13.3519 2.59449 13.1281 2.33544 13.1281C2.07639 13.1281 1.86638 13.3519 1.86638 13.6281C1.86638 13.9042 2.07639 14.1281 2.33544 14.1281Z" fill="#82AF31"/>
</svg>
