<svg width="97" height="29" viewBox="0 0 97 29" fill="none" xmlns="http://www.w3.org/2000/svg">
<path d="M46.1803 14.1782C47.1798 13.645 47.8461 12.6704 47.8461 11.3465C47.8461 9.30552 46.1803 8 43.0708 8H37V20.8713H43.441C46.7726 20.8713 48.5124 19.5842 48.5124 17.3777C48.5124 15.7044 47.5684 14.6195 46.1803 14.1782ZM42.8117 9.87553C44.4775 9.87553 45.4214 10.4639 45.4214 11.6591C45.4214 12.8359 44.4775 13.4243 42.8117 13.4243H39.4061V9.87553H42.8117ZM43.2929 18.9958H39.4061V15.2815H43.2929C45.1068 15.2815 46.0878 15.8515 46.0878 17.1386C46.0878 18.4257 45.1068 18.9958 43.2929 18.9958Z" fill="white"/>
<path d="M60.5197 16.017C60.5197 12.9463 58.4097 10.942 55.5224 10.942C52.5795 10.942 50.414 13.0382 50.414 15.9618C50.414 18.8854 52.561 21 55.8741 21C57.5769 21 58.965 20.4484 59.8534 19.4003L58.6133 17.9844C57.91 18.7016 57.0401 19.0509 55.9296 19.0509C54.2083 19.0509 53.0052 18.1315 52.7276 16.6973H60.4827C60.5012 16.4767 60.5197 16.2008 60.5197 16.017ZM55.5224 12.7808C57.0401 12.7808 58.1321 13.7553 58.3172 15.1711H52.7091C52.9312 13.7369 54.0232 12.7808 55.5224 12.7808Z" fill="white"/>
<path d="M68.4057 18.7016C68.0541 18.9774 67.5913 19.1061 67.1101 19.1061C66.2217 19.1061 65.7405 18.5912 65.7405 17.6351V12.9646H68.3872V11.1259H65.7405V8.8826H63.4269V11.1259H61.7981V12.9646H63.4269V17.6902C63.4269 19.86 64.667 21 66.8325 21C67.6654 21 68.4983 20.7793 69.0535 20.338L68.4057 18.7016Z" fill="white"/>
<path d="M76.3854 18.7016C76.0337 18.9774 75.571 19.1061 75.0898 19.1061C74.2014 19.1061 73.7202 18.5912 73.7202 17.6351V12.9646H76.3669V11.1259H73.7202V8.8826H71.4066V11.1259H69.7778V12.9646H71.4066V17.6902C71.4066 19.86 72.6467 21 74.8122 21C75.6451 21 76.4779 20.7793 77.0332 20.338L76.3854 18.7016Z" fill="white"/>
<path d="M83.4233 21C86.4958 21 88.6983 18.9038 88.6983 15.9618C88.6983 13.0198 86.4958 10.942 83.4233 10.942C80.3879 10.942 78.1669 13.0198 78.1669 15.9618C78.1669 18.9038 80.3879 21 83.4233 21ZM83.4233 19.0325C81.7575 19.0325 80.499 17.8373 80.499 15.9618C80.499 14.0863 81.7575 12.8911 83.4233 12.8911C85.1076 12.8911 86.3662 14.0863 86.3662 15.9618C86.3662 17.8373 85.1076 19.0325 83.4233 19.0325Z" fill="white"/>
<path d="M93.4834 12.4866V11.0523H91.2808V20.8713H93.5944V16.1089C93.5944 14.1047 94.7049 13.075 96.4632 13.075C96.6298 13.075 96.7964 13.0934 97 13.1301V10.942C95.3527 10.942 94.1497 11.4569 93.4834 12.4866Z" fill="white"/>
<path d="M29 29L18.3093 14.0029L28.3037 0H21.1356L14.6638 9.40429L8.06921 0H0.532486L10.6088 14.2514L0 29H7.61864L14.4181 18.9329L21.3404 29H29Z" fill="#14A0FF"/>
<path d="M5.91983 20.5166C4.68824 18.7236 4.09056 16.84 4 14.6757C4.28073 14.8839 4.48901 15.047 4.6973 15.2009C5.1682 15.5541 5.34026 15.5541 5.81116 15.1828C6.5809 14.5761 7.3597 13.9784 8.11133 13.3535C8.37394 13.1362 8.60034 13.1181 8.92635 13.1724C9.72326 13.2901 10.1308 13.6886 10.33 14.4764C10.6017 15.5269 11.0182 16.5321 11.3442 17.5645C11.3986 17.7275 11.3442 17.9629 11.2627 18.1259C10.8371 18.9772 10.1942 19.3575 9.19802 19.1854C8.50978 19.0677 7.78532 19.113 7.07897 19.0949C6.47223 19.0768 6.31828 19.1854 6.14622 19.7741C6.08283 19.9824 6.01038 20.1906 5.91983 20.5166Z" fill="white"/>
<path d="M24.9996 14.6666C24.9181 16.831 24.3204 18.7146 23.0888 20.5076C22.9801 20.1544 22.8986 19.8918 22.8262 19.6202C22.7175 19.2398 22.464 19.0587 22.0564 19.0768C21.015 19.1221 19.9736 19.1402 18.9413 19.1855C18.6515 19.2036 18.4975 19.0677 18.2983 18.8866C17.5738 18.2165 17.5467 17.5192 17.9361 16.6408C18.3436 15.7262 18.5971 14.7391 18.9503 13.7882C19.0137 13.6162 19.2129 13.4532 19.394 13.3717C20.1638 12.9913 20.8158 13.1181 21.4407 13.752C21.9568 14.2772 22.5817 14.6847 23.1703 15.1375C23.7046 15.5541 23.8404 15.5541 24.3928 15.1285C24.5558 15.0017 24.737 14.8749 24.9996 14.6666Z" fill="white"/>
<path d="M6.20898 8.05581C7.49491 6.40766 9.0525 5.2938 11.0086 4.56934C10.918 4.86818 10.8637 5.09457 10.7731 5.31191C10.601 5.73753 10.7369 6.02732 11.0991 6.28088C11.9594 6.86045 12.8288 7.44002 13.671 8.05581C13.8158 8.16448 13.9155 8.39993 13.9517 8.5901C14.16 9.55002 13.7887 10.1839 12.9103 10.6458C12.1405 11.0533 11.4432 11.5966 10.7369 12.1128C10.429 12.3392 10.1573 12.3483 9.77697 12.2939C9.01628 12.1853 8.65405 11.7959 8.50915 11.0442C8.36426 10.2926 8.10164 9.55907 7.89336 8.82556C7.69413 8.1192 7.56735 8.02865 6.85195 8.04676C6.67083 8.06487 6.48066 8.05581 6.20898 8.05581Z" fill="white"/>
<path d="M22.8087 8.05635C22.5189 8.05635 22.3469 8.0654 22.1657 8.05635C21.4413 8.02918 21.2964 8.12879 21.1062 8.80798C20.8345 9.75884 20.5629 10.7187 20.3003 11.6787C20.2369 11.9232 20.092 12.0137 19.8656 12.1133C19.0596 12.4665 18.4076 12.3126 17.7284 11.7602C16.9858 11.1534 16.1527 10.6463 15.3558 10.112C15.1475 9.97617 15.0841 9.82223 15.0479 9.56866C14.8849 8.59064 15.229 7.92957 16.1255 7.47678C16.7232 7.17794 17.2485 6.72515 17.8099 6.3448C18.3714 5.9554 18.4167 5.81051 18.1993 5.17661C18.1359 4.99549 18.0816 4.81438 18.0001 4.55176C19.9561 5.28528 21.5047 6.41725 22.8087 8.05635Z" fill="white"/>
<path d="M11.6248 24.592C11.67 24.5195 11.67 24.5014 11.6881 24.4924C12.8835 23.6502 12.7296 23.7679 12.2587 22.4367C11.987 21.667 11.6972 20.9063 11.4527 20.1365C11.4074 19.9826 11.4527 19.7652 11.5251 19.6204C11.9689 18.751 12.639 18.3707 13.6623 18.4974C14.5226 18.6061 15.4101 18.5337 16.2794 18.5156C16.5421 18.5065 16.696 18.6152 16.8862 18.7963C17.6287 19.4845 17.7102 20.209 17.2484 21.0964C16.9314 21.7213 16.7594 22.4186 16.5239 23.0887C16.3247 23.6411 16.379 23.8041 16.8681 24.1573C17.0401 24.275 17.2031 24.4018 17.4386 24.5739C15.4554 25.1444 13.5536 25.1353 11.6248 24.592Z" fill="white"/>
<path d="M11.0459 13.2357C12.1416 12.4841 13.2193 11.7415 14.306 11.008C14.3965 10.9446 14.6048 10.9446 14.6954 11.008C15.7821 11.7325 16.8597 12.475 17.9555 13.2357C17.4936 14.576 17.0499 15.8981 16.588 17.2112C16.5518 17.3108 16.3798 17.4195 16.262 17.4195C15.0848 17.4376 13.9166 17.4376 12.7393 17.4195C12.6307 17.4195 12.4495 17.3108 12.4133 17.2112C11.9515 15.8981 11.5077 14.576 11.0459 13.2357Z" fill="white"/>
<path d="M5.24948 14.2324C4.89631 13.9607 4.56124 13.7343 4.25335 13.4717C4.16279 13.3902 4.09034 13.2182 4.0994 13.1004C4.25335 11.7873 4.66991 10.5467 5.33098 9.39661C5.38532 9.297 5.55738 9.2155 5.68416 9.19739C6.8433 9.09777 6.8433 9.10683 7.16931 10.2388C7.33231 10.8184 7.51343 11.3979 7.65832 11.9775C7.68549 12.0952 7.65832 12.3035 7.57682 12.3669C6.81613 13.0008 6.03734 13.6076 5.24948 14.2324Z" fill="white"/>
<path d="M23.7596 14.2322C22.9717 13.6074 22.202 13.0097 21.4413 12.3939C21.3507 12.3215 21.2964 12.1313 21.3326 12.0136C21.559 11.1533 21.7945 10.302 22.0662 9.45983C22.1024 9.3421 22.3016 9.26965 22.4284 9.17004C22.4374 9.16098 22.4556 9.17004 22.4737 9.17004C23.6419 9.16098 23.6781 9.15193 24.1037 10.2477C24.4297 11.0989 24.638 11.9954 24.9006 12.8739C24.9821 13.1636 24.9187 13.381 24.6471 13.5621C24.3301 13.7523 24.0675 13.9968 23.7596 14.2322Z" fill="white"/>
<path d="M20.3374 20.1998C20.7268 20.1998 21.1253 20.2179 21.5147 20.1907C21.7773 20.1726 21.8769 20.2632 21.9584 20.5077C22.3025 21.6125 22.3387 21.6487 21.4332 22.355C20.6815 22.9437 19.8393 23.4327 19.0424 23.967C18.807 24.1209 18.6259 24.0847 18.3995 23.9126C17.6116 23.324 17.6116 23.3331 17.9467 22.3913C18.155 21.7936 18.3814 21.205 18.5806 20.5982C18.6621 20.3537 18.7889 20.2632 19.0334 20.2632C19.4681 20.2722 19.9118 20.2632 20.3465 20.2632C20.3374 20.2541 20.3374 20.2269 20.3374 20.1998Z" fill="white"/>
<path d="M11.3808 23.2795C11.3355 23.3338 11.2812 23.4153 11.2087 23.4787C10.3575 24.1941 10.285 24.2394 9.34324 23.6236C8.53727 23.0984 7.81281 22.4645 7.05212 21.8849C6.79856 21.6947 6.78045 21.4774 6.87101 21.1786C7.16985 20.2186 7.15174 20.2096 8.16599 20.2368C8.78178 20.2549 9.39757 20.2549 10.0134 20.3001C10.1492 20.3092 10.3484 20.445 10.4028 20.5628C10.7288 21.3868 11.0095 22.229 11.3083 23.0622C11.3355 23.1165 11.3446 23.1708 11.3808 23.2795Z" fill="white"/>
<path d="M17.1301 5.48431C16.306 6.04577 15.5181 6.59818 14.7122 7.13247C14.6126 7.19586 14.4133 7.20491 14.3228 7.15058C13.5078 6.61629 12.7018 6.05483 11.9139 5.51148C11.9139 5.44809 11.8958 5.41187 11.9049 5.39376C12.2852 4.16217 12.2762 4.09878 13.5802 4.01728C14.522 3.95389 15.4729 4.08067 16.4147 4.14406C16.5414 4.15311 16.6954 4.29801 16.7588 4.42479C16.9037 4.7508 16.9942 5.09492 17.1301 5.48431Z" fill="white"/>
</svg>
