<svg xmlns="http://www.w3.org/2000/svg"><symbol id="applestore" viewBox="0 0 159 49"><path d="M153 0H7A6.46 6.46 0 00.53 6.48v35.2a6.46 6.46 0 006.48 6.48h146a6.51 6.51 0 006.48-6.48V6.48A6.47 6.47 0 00153.02 0zm4.62 41.7a4.62 4.62 0 01-4.62 4.63H7a4.64 4.64 0 01-4.62-4.63V6.5A4.65 4.65 0 017 1.87h146a4.63 4.63 0 014.62 4.63v35.2zm-121-18.8c-.03-3.85 3.15-5.72 3.29-5.81a7 7 0 00-5.57-3.02c-2.34-.25-4.62 1.41-5.81 1.41-1.22 0-3.06-1.38-5.04-1.34a7.5 7.5 0 00-6.25 3.81c-2.7 4.69-.69 11.6 1.9 15.4 1.29 1.85 2.81 3.93 4.79 3.86 1.94-.08 2.66-1.24 5-1.24 2.32 0 3 1.24 5.01 1.2 2.08-.04 3.39-1.86 4.64-3.74a15.16 15.16 0 002.12-4.33 6.7 6.7 0 01-4.07-6.16zm-3.81-11.3a6.88 6.88 0 001.56-4.89 6.96 6.96 0 00-4.48 2.32c-.96 1.12-1.82 2.97-1.6 4.71 1.69.13 3.43-.85 4.52-2.14zm23.6 9.43l-5.11 15.9h2.64l1.41-4.67h5.15l1.48 4.67h2.71l-5.13-15.9h-3.15zm-.61 9.27l1.32-4.15c.35-1.32.6-2.32.75-2.99h.05c.4 1.57.66 2.57.8 2.99l1.34 4.15H55.8zm17.3-5.07c-1.73 0-3.01.68-3.86 2.05h-.05l-.14-1.82H66.8c.06 1.29.1 2.55.1 3.77v12.4h2.53v-6.04h.05c.66 1.09 1.74 1.63 3.25 1.63a4.64 4.64 0 003.51-1.52c1.05-1.13 1.58-2.67 1.58-4.62 0-1.74-.45-3.15-1.35-4.22a4.2 4.2 0 00-3.37-1.6zm1.34 8.85a2.61 2.61 0 01-2.24 1.1 2.53 2.53 0 01-1.98-.85 3.07 3.07 0 01-.77-2.11V30.3c0-.27.05-.53.12-.78a2.9 2.9 0 011-1.64c.47-.4 1.08-.63 1.7-.63a2.6 2.6 0 012.22 1.14c.53.82.8 1.78.75 2.76a4.9 4.9 0 01-.8 2.93zm11.8-8.85c-1.73 0-3.01.68-3.86 2.05h-.05l-.14-1.82h-2.24c.06 1.29.1 2.55.1 3.77v12.4h2.53v-6.04h.05c.66 1.09 1.74 1.63 3.25 1.63a4.63 4.63 0 003.51-1.52c1.05-1.13 1.58-2.67 1.58-4.62 0-1.74-.45-3.15-1.35-4.22a4.21 4.21 0 00-3.38-1.6zm1.34 8.85a2.61 2.61 0 01-2.24 1.1 2.53 2.53 0 01-1.99-.85 3.08 3.08 0 01-.76-2.11V30.3c.01-.27.05-.53.12-.78a2.9 2.9 0 011-1.64c.47-.4 1.08-.63 1.7-.63a2.6 2.6 0 012.22 1.14c.53.82.8 1.78.75 2.76a4.9 4.9 0 01-.8 2.93zm14.1-6.3a8.16 8.16 0 01-2.31-1.23 1.94 1.94 0 01-.73-1.56 1.9 1.9 0 01.64-1.44 3.1 3.1 0 012.09-.66c1.06-.01 2.1.24 3.04.73l.63-2.08a7.7 7.7 0 00-3.6-.75c-1.62 0-2.9.41-3.88 1.25a4.04 4.04 0 00-1.46 3.2c0 2 1.4 3.53 4.16 4.57.8.25 1.55.67 2.2 1.23a2.21 2.21 0 01.65 1.63 2.1 2.1 0 01-.8 1.73c-.65.47-1.44.7-2.24.65a7 7 0 01-3.67-1l-.58 2.11c1.04.66 2.4.99 4.1 1 1.86 0 3.3-.47 4.33-1.4a4.26 4.26 0 001.4-3.3 4.02 4.02 0 00-.96-2.75 7.9 7.9 0 00-3-1.94zm9.58-5.17l-2.5.75v2.1h-1.67v1.91h1.67v5.78c0 1.45.28 2.48.85 3.1a3.01 3.01 0 002.36.91c.67.03 1.34-.07 1.98-.28l-.07-1.94c-.37.1-.75.13-1.13.12-1 0-1.48-.7-1.48-2.12v-5.57h2.8v-1.92h-2.8V22.6zm9.93 2.62a5.3 5.3 0 00-4.15 1.7 6.23 6.23 0 00-1.54 4.36 6.08 6.08 0 001.5 4.22 5.1 5.1 0 004 1.68 5.38 5.38 0 004.2-1.75 6.33 6.33 0 001.5-4.34 6.06 6.06 0 00-1.45-4.2 5.16 5.16 0 00-4.05-1.67zm2.17 8.7a2.51 2.51 0 01-2.28 1.4 2.57 2.57 0 01-2.31-1.37 5.17 5.17 0 01-.69-2.72 5.2 5.2 0 01.69-2.77 2.53 2.53 0 012.32-1.37 2.52 2.52 0 012.29 1.36 5.73 5.73 0 01-.02 5.46zm9.13-8.08a3.93 3.93 0 00-1.27 1.81h-.07l-.1-2.19h-2.2c.06 1.09.09 2.29.1 3.61l-.03 7.86h2.54v-6.02c-.04-.8.19-1.6.63-2.26a2.4 2.4 0 012.08-1.02c.27 0 .53.03.8.08v-2.43a3.9 3.9 0 00-.64-.05c-.66 0-1.3.21-1.84.61zm9.08-.64a4.88 4.88 0 00-4 1.84 6.57 6.57 0 00-1.41 4.32c0 1.76.5 3.17 1.52 4.21a5.57 5.57 0 004.18 1.58 9.55 9.55 0 003.84-.71l-.4-1.77a8.5 8.5 0 01-3.08.54c-.9.04-1.79-.25-2.49-.8a3.34 3.34 0 01-1.1-2.6h7.62c.06-.38.1-.76.09-1.16a6.2 6.2 0 00-1.01-3.6 4.26 4.26 0 00-3.75-1.85zM138.6 30c.06-.71.32-1.4.75-1.97a2.41 2.41 0 012.02-1.04 2.21 2.21 0 012.03 1.06c.35.59.53 1.27.5 1.96h-5.3zM54.3 14.4c-.33 0-.65-.04-.96-.13a4.68 4.68 0 01-.77-.3l-.32.97c.32.18.66.3 1.01.38a5.18 5.18 0 002.14 0c.34-.08.66-.22.94-.4.28-.2.52-.44.69-.73.18-.33.27-.7.26-1.09a1.76 1.76 0 00-.54-1.28c-.16-.17-.36-.3-.58-.4a3.15 3.15 0 00-.7-.2v-.03c.43-.1.82-.32 1.11-.65.3-.33.45-.76.43-1.2a1.77 1.77 0 00-.64-1.45 2.7 2.7 0 00-1.77-.53 3.88 3.88 0 00-2.13.58l.27.9a4.27 4.27 0 011.62-.45c.36-.02.7.09 1 .3a1 1 0 01.37.82c0 .18-.04.36-.13.52-.09.15-.2.29-.35.4a2.01 2.01 0 01-1.2.35h-.52v.95h.52c.23 0 .45.02.68.06.21.04.42.1.61.2s.34.25.46.42a1.3 1.3 0 01-.26 1.63c-.36.26-.8.39-1.23.36zm5.46-2.2a1.73 1.73 0 00-.86 1.58c0 .22.04.45.13.66a1.64 1.64 0 00.9.87c.22.08.46.13.7.12a1.9 1.9 0 001.64-.78h.03l.1.65h1.11a8.54 8.54 0 01-.08-1.34v-2.07c0-1.56-.73-2.33-2.2-2.33a3.6 3.6 0 00-1.94.49l.26.82c.43-.28.94-.42 1.46-.41.77 0 1.17.37 1.17 1.1v.11a4.65 4.65 0 00-2.43.53zm2.46.3v.87c0 .16-.03.32-.1.46a1.22 1.22 0 01-.66.6c-.14.06-.3.09-.46.09a.8.8 0 01-.85-.88.91.91 0 01.51-.87c.5-.2 1.02-.3 1.56-.27zm4.9-1.79h2.34V9.67h-3.58v5.63h1.25v-4.6zm4.1.82v6.07h1.26v-2.97h.02a1.73 1.73 0 001.6.8 2.3 2.3 0 001.8-.84c.23-.28.4-.6.51-.94a3.9 3.9 0 000-2.4 2.8 2.8 0 00-.48-.9 2.06 2.06 0 00-1.66-.8 2.1 2.1 0 00-1.9 1h-.02l-.07-.89h-1.1l.03.95.02.91zm1.26.53c0-.4.15-.78.42-1.07.13-.14.28-.24.45-.32a1.3 1.3 0 011.59.42 2.2 2.2 0 01.39 1.38c.02.51-.12 1.02-.4 1.44a1.28 1.28 0 01-1.1.54 1.25 1.25 0 01-.98-.42 1.4 1.4 0 01-.27-.46c-.07-.19-.1-.38-.1-.58v-.94zm8.4 3.8c.4-.73.72-1.5 1-2.27l1.42-3.9h-1.33l-.95 3.13a11.02 11.02 0 00-.31 1.12h-.03a28.42 28.42 0 00-.33-1.11L79.3 9.68h-1.38l2.04 5.18.07.26a2.75 2.75 0 01-.8 1.18c-.27.24-.58.4-.92.5l.3 1.05c.51-.1.99-.34 1.38-.7.37-.38.68-.82.91-1.3zm5.38-1.31a3.38 3.38 0 01-1.48-.38l-.32.82c.28.16.6.27.91.34a5.03 5.03 0 001.9.02c.3-.05.57-.15.83-.28.25-.13.46-.31.62-.54.17-.24.26-.53.25-.83a1.16 1.16 0 00-.46-.95 2.17 2.17 0 00-1-.41v-.03c.14-.04.28-.08.42-.15.14-.06.27-.15.39-.25.11-.1.2-.23.27-.36.08-.15.11-.3.1-.47.02-.25-.05-.5-.18-.72a1.5 1.5 0 00-.5-.47 2.2 2.2 0 00-.68-.25 4.7 4.7 0 00-1.73.02c-.34.07-.67.2-.97.36l.32.82c.2-.12.41-.2.63-.28.22-.07.45-.1.68-.1.28-.03.57.05.81.2a.65.65 0 01.3.56.68.68 0 01-.35.57c-.3.17-.64.25-.98.23h-.58v.79h.59c.2 0 .4.01.6.04.17.02.33.07.49.14.13.07.24.16.32.27a.7.7 0 01.11.42.74.74 0 01-.34.61 1.6 1.6 0 01-.97.26zm8.5-1.23v1.99h1.19V9.67h-1.62l-1.4 2.66-.43.86-.43.86-.02-.02a79.32 79.32 0 00.08-2.38V9.66h-1.2v5.63h1.63l.74-1.43.72-1.39.39-.79c.15-.3.28-.6.39-.9h.06a125.07 125.07 0 00-.1 2.5zm4.84 1.99h1.23v-4.6h1.7V9.67H97.9v1.03h1.7v4.6zm8.8-1.11c-.48.18-1 .27-1.52.26-.46.02-.92-.13-1.27-.43a1.66 1.66 0 01-.5-1.24h3.74c.01-.08.03-.17.03-.26l.01-.3c0-.38-.05-.75-.16-1.1-.1-.3-.26-.6-.47-.84-.2-.24-.45-.42-.74-.55-.3-.13-.63-.2-.96-.19a2.45 2.45 0 00-1.93.87 3 3 0 00-.54.96 3.7 3.7 0 000 2.37 2.41 2.41 0 001.43 1.46 4.72 4.72 0 003.07-.14l-.2-.87zm-2.84-3.36a1.22 1.22 0 01.92-.42 1.09 1.09 0 01.92.41c.23.31.34.7.32 1.07h-2.6c.02-.4.18-.77.44-1.07zm11 4.5a4 4 0 001-.22 2 2 0 00.8-.53c.22-.26.34-.6.32-.93a1.17 1.17 0 00-.38-.93 1.95 1.95 0 00-1-.44v-.04a1.48 1.48 0 00.77-.39 1.1 1.1 0 00.35-.81c.01-.3-.09-.57-.27-.8a1.72 1.72 0 00-.66-.43c-.27-.1-.55-.15-.83-.18a13.35 13.35 0 00-2.7.09v5.59a30.5 30.5 0 001.66.07c.28 0 .59-.02.94-.05zm-1.4-4.81a49.4 49.4 0 01.75-.05c.34-.02.69.04 1 .18a.59.59 0 01.32.56.6.6 0 01-.11.35.77.77 0 01-.31.24 3.27 3.27 0 01-1 .16h-.64v-1.45zm0 3.94v-1.68h.67c.4-.02.79.04 1.16.18a.67.67 0 01.43.67.7.7 0 01-.14.44.9.9 0 01-.35.26c-.16.07-.32.12-.49.14a3.96 3.96 0 01-.88.02l-.4-.03h.01z" clip-rule="evenodd" fill-rule="evenodd"/></symbol><symbol id="facebook" viewBox="0 0 8 19"><path d="M0 6.28h1.71V4.4c0-.84.04-2.18.57-2.98A2.78 2.78 0 014.85.01C7.01.01 8 .32 8 .32L7.56 3.3A4.47 4.47 0 006.13 3c-.67 0-1.29.18-1.29.94V6.3H7.7v2.83H4.84v9.9H1.7v-9.9H0V6.3z"/></symbol><symbol id="googleplay" viewBox="0 0 159 49"><path d="M153 0H7A6.47 6.47 0 00.53 6.48v35.2A6.46 6.46 0 007 48.16h146a6.51 6.51 0 006.48-6.48V6.48A6.47 6.47 0 00153.01 0zm4.62 41.7a4.62 4.62 0 01-4.63 4.63h-146a4.64 4.64 0 01-4.62-4.63V6.5a4.65 4.65 0 014.62-4.63h146a4.63 4.63 0 014.63 4.63v35.2zm-104-27.1c-.32 0-.65-.04-.96-.14a5.16 5.16 0 01-.77-.29l-.32.96c.32.18.66.31 1.01.39a4.51 4.51 0 002.14 0c.34-.08.66-.22.95-.4.27-.2.5-.44.68-.73.18-.33.27-.7.26-1.09a1.78 1.78 0 00-1.11-1.67c-.23-.1-.46-.17-.7-.2v-.04c.42-.1.8-.32 1.1-.65a1.91 1.91 0 00-.21-2.65 2.69 2.69 0 00-1.77-.53 3.88 3.88 0 00-2.13.58l.28.89a5 5 0 01.76-.3c.28-.1.56-.14.86-.14.35-.02.7.08.99.3a.99.99 0 01.37.81c0 .18-.04.36-.13.52-.08.16-.2.3-.35.4a2.16 2.16 0 01-1.19.36h-.53v.95h.53c.22 0 .45.02.67.06.22.03.43.1.62.2.18.1.34.25.45.42a1.31 1.31 0 01-.26 1.63c-.36.26-.8.38-1.23.35zm5.46-2.21a1.73 1.73 0 00-.86 1.58 1.57 1.57 0 001.03 1.53c.22.09.46.13.7.13a1.9 1.9 0 001.64-.78h.03l.1.65h1.11a8.54 8.54 0 01-.08-1.34v-2.08c0-1.55-.73-2.33-2.2-2.33a3.57 3.57 0 00-1.93.49l.26.82a2.6 2.6 0 011.46-.42c.77 0 1.17.38 1.17 1.11v.11a4.65 4.65 0 00-2.43.52zm2.46.31v.87c0 .16-.03.31-.1.45a1.19 1.19 0 01-.66.6c-.14.07-.3.1-.46.1a.88.88 0 01-.6-.22.86.86 0 01-.25-.66.91.91 0 01.51-.87c.5-.21 1.02-.3 1.56-.27zm7.24-2.83H65.2v5.63h1.25v-4.6h2.34V9.87zm1.78 1.85v6.07h1.25v-2.97h.02a1.73 1.73 0 001.6.8 2.27 2.27 0 001.8-.84c.22-.28.4-.6.5-.94a3.92 3.92 0 00.01-2.4 2.55 2.55 0 00-1.22-1.5 2.26 2.26 0 00-2.82.8h-.02l-.07-.88h-1.1a47.27 47.27 0 01.04 1.85zm1.25.53a1.52 1.52 0 01.87-1.38 1.26 1.26 0 011.13.03c.18.09.34.22.46.39.13.18.23.38.29.6.06.25.1.5.1.77.02.51-.12 1.02-.4 1.45a1.27 1.27 0 01-1.1.54 1.32 1.32 0 01-.97-.42 1.3 1.3 0 01-.28-.46c-.07-.2-.1-.39-.1-.58v-.94zm7.54 3.07a2.8 2.8 0 01-.8 1.18c-.26.23-.58.4-.92.5l.3 1.05c.52-.1 1-.34 1.38-.7.37-.39.68-.82.92-1.3.38-.73.71-1.5.99-2.28l1.42-3.9H81.3l-.95 3.12a13.04 13.04 0 00-.31 1.13h-.03l-.17-.62c-.06-.18-.1-.35-.16-.5l-1.06-3.13h-1.38l2.04 5.18c.03.08.05.17.06.26zm6.24-.59a3.19 3.19 0 01-1.48-.38l-.32.82c.28.16.6.28.91.35a4.83 4.83 0 001.9.02c.3-.05.58-.15.84-.29.24-.12.46-.3.62-.53.16-.24.25-.54.24-.83a1.18 1.18 0 00-.46-.94c-.14-.12-.3-.21-.47-.28a2.17 2.17 0 00-.54-.14v-.03c.15-.04.3-.09.43-.15a1.4 1.4 0 00.66-.61c.08-.15.11-.3.1-.47a1.29 1.29 0 00-.67-1.19 2.03 2.03 0 00-.69-.25 3.97 3.97 0 00-1.73.02c-.34.07-.67.2-.97.36l.32.81c.2-.1.41-.2.63-.27.22-.07.45-.1.68-.1.28-.02.57.05.81.2a.66.66 0 01.3.56.68.68 0 01-.35.56c-.3.18-.64.26-.98.23h-.58v.8h.59c.2 0 .4 0 .6.03.17.03.33.07.49.15.13.06.24.16.32.27a.7.7 0 01.11.41.74.74 0 01-.34.62c-.29.18-.63.27-.97.25zm7.04-.66a129.65 129.65 0 011.1-2.17c.15-.3.28-.6.4-.9h.05a118.6 118.6 0 00-.09 2.51v2h1.18V9.86h-1.62l-1.39 2.67-.43.86-.44.87-.02-.02.06-1.15.02-1.23v-2h-1.19v5.64h1.62l.75-1.42zm6.3 1.43h1.23v-4.6h1.71V9.87h-4.64v1.03h1.7v4.6zm5.05-.67c.25.25.55.45.88.58a4.73 4.73 0 003.07-.15l-.2-.87c-.48.18-1 .27-1.52.27a1.8 1.8 0 01-1.26-.44 1.67 1.67 0 01-.5-1.23h3.75l.03-.26a3.76 3.76 0 00-.15-1.41c-.1-.31-.25-.6-.47-.85a2.1 2.1 0 00-.73-.54c-.31-.13-.64-.2-.97-.19a2.44 2.44 0 00-1.94.87c-.24.28-.42.6-.54.96a3.67 3.67 0 000 2.37c.12.33.31.63.56.88zm.9-3.8a1.23 1.23 0 01.93-.42 1.1 1.1 0 01.92.41c.22.31.33.7.31 1.07h-2.6c.03-.39.18-.77.44-1.07zm12 4.27c.3-.1.58-.29.8-.52.23-.26.34-.6.33-.94a1.18 1.18 0 00-.39-.93 1.9 1.9 0 00-.99-.44l-.01-.04a1.6 1.6 0 00.78-.39 1.1 1.1 0 00.34-.81 1.1 1.1 0 00-.27-.79c-.18-.2-.4-.34-.66-.43-.26-.1-.54-.16-.82-.18a8.38 8.38 0 00-1.84-.01 6.3 6.3 0 00-.86.1v5.58l.75.04a17.07 17.07 0 001.84-.01c.35-.03.68-.11 1-.23zm-2.39-4.6a8.91 8.91 0 01.74-.03 2 2 0 011 .17.6.6 0 01.32.57c0 .12-.03.25-.1.35a.75.75 0 01-.32.23 3.5 3.5 0 01-1 .17h-.64V10.7zm.76 3.99l-.37-.01-.39-.03v-1.68h.66c.4-.02.8.04 1.16.18a.67.67 0 01.43.67.7.7 0 01-.13.44c-.1.12-.22.2-.36.27-.15.06-.32.1-.48.13l-.52.03zm-84.5 8.76l-14.3-14.2v28.4l14.3-14.2zm.48-.48l3.5-3.49-16.8-9.72 13.3 13.2zm.48.48l3.64 3.6 6.25-3.61-6.25-3.62-3.64 3.62zm-.48.48l-13.3 13.2 16.8-9.72-3.51-3.49zm88.7 1.67a3.27 3.27 0 00-2.9 1.44h-.07l-.2-1.27h-1.13v13.4h1.4v-3.8c0-.52-.04-1.04-.1-1.55h.1c.32.45.75.8 1.25 1.03.52.23 1.08.34 1.65.34a3.4 3.4 0 002.82-1.27 5.52 5.52 0 001.02-3.55c0-1.5-.34-2.69-1-3.53a3.4 3.4 0 00-2.84-1.26zm1.7 7.46a2.17 2.17 0 01-1.86.97c-.96 0-1.65-.28-2.08-.84-.44-.56-.65-1.49-.65-2.79v-.31c0-1.14.22-1.98.65-2.5.42-.52 1.1-.78 2.05-.79a2.22 2.22 0 011.9.93c.46.61.68 1.5.68 2.66a4.6 4.6 0 01-.68 2.68zm3.98 1.97h1.4v-13.2h-1.4v13.2zm7.24-9.4a6.41 6.41 0 00-3.13.78l.43 1.08a6.1 6.1 0 012.61-.71c.27-.02.55 0 .8.1s.5.23.7.42c.35.46.51 1.03.47 1.61v.58l-1.57.05c-2.98.09-4.48 1.07-4.48 2.94a2.57 2.57 0 00.78 2.01c.6.5 1.37.76 2.16.71.58.02 1.17-.09 1.72-.3a3.92 3.92 0 001.38-1.19h.07l.27 1.32h1.04v-6.32c0-1.08-.26-1.86-.8-2.36-.52-.49-1.34-.73-2.44-.73zm1.85 5.7a2.7 2.7 0 01-.75 2c-.56.51-1.3.77-2.05.73a1.9 1.9 0 01-1.29-.4 1.45 1.45 0 01-.46-1.16 1.58 1.58 0 01.74-1.43 5.1 5.1 0 012.41-.52l1.4-.06v.83zm7.09.87c-.23.7-.39 1.19-.46 1.48h-.07a19.3 19.3 0 00-.82-2.61l-2.02-5.3h-1.5l3.73 9.33-.52 1.32c-.4 1.08-1.1 1.62-2.06 1.62a5 5 0 01-1.04-.1v1.12c.42.1.84.14 1.26.14.7.02 1.4-.21 1.94-.65a5.35 5.35 0 001.38-2.22l3.97-10.6h-1.5a445.37 445.37 0 00-2.29 6.42zm-45.4-6.26H92.4A5.25 5.25 0 0088.95 27a3.46 3.46 0 00-1.24 2.6 3.04 3.04 0 002 2.85c.38.15.8.21 1.2.2a7 7 0 00.63-.05c-.13.24-.2.5-.2.76.03.5.24.96.58 1.32-.87.06-2.49.15-3.69.89a2.78 2.78 0 00-1.48 2.36c0 1.43 1.35 2.77 4.16 2.77 3.32 0 5.08-1.84 5.08-3.66 0-1.34-.78-2-1.62-2.72l-.7-.54a1.06 1.06 0 01-.5-.83 1.37 1.37 0 01.54-.96c.81-.64 1.62-1.32 1.62-2.75a3.24 3.24 0 00-1.37-2.6h1.2l1.23-.7zm-1.7 11.9c0 1.2-.99 2.1-2.84 2.1-2.07 0-3.4-1-3.4-2.37 0-1.38 1.24-1.84 1.66-2a7.78 7.78 0 012.47-.28c1.47 1.05 2.11 1.57 2.11 2.55zm-1.55-6.24c-.36.33-.83.52-1.31.54-1.66 0-2.42-2.15-2.42-3.45a2.2 2.2 0 01.42-1.43 1.8 1.8 0 011.36-.64c1.6 0 2.43 2.17 2.43 3.56.03.52-.14 1.03-.48 1.42zm-11.1-5.9c-2.94 0-5 2.17-5 4.7a4.54 4.54 0 004.7 4.56 4.75 4.75 0 004.53-2.87 4.71 4.71 0 00.04-3.6 4.44 4.44 0 00-2.5-2.48 4.5 4.5 0 00-1.77-.32zm2.12 7.7a2.48 2.48 0 01-1.97.98c-2.34 0-3.28-3.15-3.28-5.07 0-.83.14-1.68.89-2.36a2.7 2.7 0 011.74-.66c2.39 0 3.2 3.25 3.2 4.95a3.5 3.5 0 01-.58 2.15zm-12.6-7.7c-2.94 0-5 2.17-5 4.7a4.54 4.54 0 004.7 4.56 4.75 4.75 0 004.53-2.87 4.71 4.71 0 00.04-3.6 4.46 4.46 0 00-2.5-2.48 4.5 4.5 0 00-1.77-.32zm2.12 7.7a2.48 2.48 0 01-1.97.98c-2.34 0-3.28-3.15-3.28-5.07 0-.83.14-1.68.89-2.36a2.7 2.7 0 011.74-.66c2.39 0 3.2 3.25 3.2 4.95.04.76-.16 1.52-.58 2.15zm-13.5-2.01l2.93-.16v3.13c-.78.34-1.62.5-2.47.49-4.23 0-6.87-3.44-6.87-7.1 0-3.4 2.3-5.74 5.38-5.74a5.5 5.5 0 014.15 1.83l-.49.78.68-.16 1.61-1.54a7.74 7.74 0 00-2.56-1.21c-.96-.27-1.97-.4-2.97-.4-4.95 0-7.84 3.5-7.84 7.27 0 3.1 2.04 7.04 7.4 7.04 1.06-.02 2.13-.13 3.2-.33l2.77-.64v-2.37c0-.2.02-.76.04-.94a.45.45 0 01.2-.3l.5-.5h-4.12l-1.55.85zm39.1 1.77v-11l.01-.13c.08-.68.27-.8.87-1.15h-2.78l-1.46.7h1.48V33.6c0 .38-.07.44-.52 1.02h3.44l.72-.42-1-.1c-.64-.06-.77-.18-.77-.93zm3.37-3.06l1.48-.12 4.53-1.84a3.18 3.18 0 00-1.35-1.91 3.78 3.78 0 00-1.98-.54 4.42 4.42 0 00-4.1 2.74 4.37 4.37 0 00-.31 1.71 4.97 4.97 0 001.96 4.07c.75.53 1.65.8 2.56.76a4.8 4.8 0 001.87-.37c.21-.1.42-.23.64-.35l1.02-.97a5 5 0 01-2.35.68c-1.83 0-3.5-1.43-3.97-3.88zm-.08-1.1c0-2.07 1.44-2.67 2.22-2.67 1.04 0 1.91.88 1.91 1.66 0 .27-.2.38-.56.52l-3.5 1.53c-.03-.35-.07-.7-.07-1.03zm6.66-3.18h.42v1.28h.16v-1.28h.42v-.14h-1v.14zm1.85 1l-.36-1.13h-.24v1.4h.14v-1.28l.4 1.29h.12l.39-1.3v1.3h.15v-1.41h-.25l-.35 1.14z" clip-rule="evenodd" fill-rule="evenodd"/></symbol><symbol id="handshake" viewBox="0 0 64 56"><path d="M51-.02l-11.3 11.3c-.4.4-.6.9-.6 1.4s.2 1 .6 1.4l.6.6-2 2h-6l-1.6 1.6-1.6-1.6h-4l-2-2 .6-.6c.4-.4.6-.9.6-1.4s-.2-1-.6-1.4L12.4-.02 11 1.4l11.3 11.3L6.7 28.3 1.41 23 0 24.4l5.29 5.3c.38.4.88.6 1.42.6s1.04-.2 1.41-.6l.59-.6 2.01 2v2l3.6 3.6-.5.5a3.8 3.8 0 002.7 6.5h.2c0 1 .3 2.1 1.1 2.9.7.7 1.7 1.1 2.7 1.1h.2c0 1 .3 2.1 1.1 2.9.7.7 1.7 1.1 2.7 1.1h.2c0 1 .3 2.1 1.1 2.9a3.86 3.86 0 005.4 0l.5-.5.5.5c.7.7 1.7 1.1 2.7 1.1.9 0 1.9-.4 2.7-1.1.8-.8 1.1-1.9 1.1-2.9h.2c.9 0 1.9-.4 2.7-1.1.8-.8 1.1-1.9 1.1-2.9h.2c.9 0 1.9-.4 2.7-1.1.8-.8 1.1-1.9 1.1-2.9h.2c.9 0 1.9-.4 2.7-1.1a3.8 3.8 0 000-5.4l-.5-.5 3.6-3.6v-2l2-2 .6.6c.4.4.9.6 1.4.6s1-.2 1.4-.6l5.3-5.3-1.4-1.4-5.3 5.3-15.6-15.6 11.3-11.3-1.4-1.4zm-9.3 16.1l11.6 11.6-2.6 2.6v2l-3 3-3.3-3.3-1.4 1.4 5.2 5.2c.7.7.7 1.9 0 2.6-.8.7-1.9.7-2.6 0l-5.2-5.2-1.4 1.4 5.2 5.2c.7.7.7 1.9 0 2.6-.8.7-1.9.7-2.6 0l-5.2-5.2-1.4 1.4 5.2 5.2c.7.7.7 1.9 0 2.6-.8.7-1.9.7-2.6 0l-5.2-5.2-1.4 1.4 5.2 5.2c.7.7.7 1.9 0 2.6-.8.7-1.9.7-2.6 0l-20.9-20.9v-2l-2.6-2.6 11.6-11.6 2.6 2.6h4l1 1-5.5 5.4c-1.5 1.5-1.5 4 0 5.5a3.86 3.86 0 005.4 0l5.9-5.9h.7c.2 1.5.9 2.8 1.9 3.9a7.3 7.3 0 005 2.1h2c2.2 0 4-1.8 4-4h-2a2 2 0 01-2 2h-2c-1.3 0-2.6-.5-3.5-1.5-1-.9-1.5-2.2-1.5-3.5v-1h-3.4l-6.5 6.4c-.7.7-1.9.7-2.6 0s-.7-1.8 0-2.5l7.9-7.9h6l2.6-2.6zm-36 5.6v2h2v-2h-2zm50 0v2h2v-2h-2zm-40 16.4l2.5 2.6-.4.5c-.7.7-1.9.7-2.6 0s-.7-1.9 0-2.6l.5-.5zm4 4l2.5 2.6-.4.5c-.7.7-1.9.7-2.6 0s-.7-1.9 0-2.6l.5-.5zm4 4l2.5 2.6-.4.5c-.7.7-1.9.7-2.6 0s-.7-1.9 0-2.6l.5-.5zm4 4l2.5 2.6-.4.5c-.7.7-1.9.7-2.6 0s-.7-1.9 0-2.6l.5-.5z"/></symbol><symbol id="keyboard" viewBox="0 0 62 64"><path d="M36 .02v1c0 .26-.1.5-.3.7s-.4.3-.7.3H23c-.8 0-1.6.3-2.1.88-.6.56-.9 1.32-.9 2.12s.3 1.56.9 2.12c.5.56 1.3.88 2.1.88h6c.3 0 .5.1.7.29s.3.44.3.7V10H2c-.54 0-1.04.2-1.41.6S0 11.5 0 12v22c0 .5.21 1.1.59 1.4.38.4.88.6 1.42.6h4v10.2l3 8v2.1l-.42.3c-.37.4-.58.9-.58 1.4v6h2v-6h12v6h2v-6c0-.5-.2-1-.6-1.4-.1-.1-.3-.2-.4-.3v-1.9c1.1-1.2 5-5.6 5-9.3V40c0-.8-.3-1.5-.9-2.1-.8-.8-2-1-3.1-.7V36h14v1.2c-1.1-.3-2.3-.1-3.1.7-.6.6-.9 1.3-.9 2.1v5.1c0 3.8 3.9 8.1 5 9.3v1.9c-.1.1-.3.2-.4.3-.4.4-.6.9-.6 1.4v6h2v-6h12v6h2v-6c0-.5-.2-1-.6-1.4-.1-.1-.3-.2-.4-.3v-2.1l3-8V36h4c.5 0 1-.2 1.4-.6s.6-.9.6-1.4V12c0-.5-.2-1-.6-1.4s-.9-.6-1.4-.6h-28v-.98c0-.81-.3-1.57-.9-2.13s-1.3-.87-2.1-.87h-6c-.3 0-.5-.11-.7-.3s-.3-.44-.3-.7c0-.27.1-.52.3-.71s.4-.3.7-.3h12c.8 0 1.6-.31 2.1-.87.6-.57.9-1.32.9-2.12v-1h-2zm-34 12h58v22h-4v-1c0-.8-.3-1.5-.9-2.1a2.9 2.9 0 00-3.2-.6c-.1-.6-.4-1-.8-1.4a2.9 2.9 0 00-3.2-.6c-.1-.5-.4-1-.8-1.4a3.09 3.09 0 00-4.2 0c-.4.4-.6.9-.8 1.4a2.9 2.9 0 00-3.2.6c-.6.6-.9 1.3-.9 2.1v3H24v-3c0-.8-.3-1.5-.9-2.1a2.9 2.9 0 00-3.2-.6c-.1-.5-.4-1-.8-1.4a3.09 3.09 0 00-4.2 0c-.4.4-.6.9-.8 1.4a2.9 2.9 0 00-3.2.6c-.4.4-.6.9-.8 1.4a2.93 2.93 0 00-4.08 2.7v1h-4v-22zm3.98 2v2h2v-2h-2zm4 0v2h2v-2h-2zm4 0v2h2v-2h-2zm4 0v2h2v-2h-2zm4 0v2h2v-2h-2zm4 0v2h2v-2h-2zm4 0v2h2v-2h-2zm4 0v2h2v-2h-2zm4 0v2h2v-2h-2zm4 0v2h2v-2h-2zm4 0v2h2v-2h-2zm4 0v2h2v-2h-2zm4 0v2h2v-2h-2zm-50 4v2h2v-2h-2zm4 0v2h2v-2h-2zm4 0v2h2v-2h-2zm4 0v2h2v-2h-2zm4 0v2h2v-2h-2zm4 0v2h2v-2h-2zm4 0v2h2v-2h-2zm4 0v2h2v-2h-2zm4 0v2h2v-2h-2zm4 0v2h2v-2h-2zm4 0v2h2v-2h-2zm4 0v2h2v-2h-2zm4 0v2h2v-2h-2zm4 0v2h2v-2h-2zm-50 4v2h2v-2h-2zm4 0v2h2v-2h-2zm4 0v2h2v-2h-2zm4 0v2h2v-2h-2zm4 0v2h2v-2h-2zm4 0v2h2v-2h-2zm4 0v2h2v-2h-2zm4 0v2h2v-2h-2zm4 0v2h2v-2h-2zm4 0v2h2v-2h-2zm4 0v2h2v-2h-2zm4 0v2h2v-2h-2zm4 0v2h2v-2h-2zm-50 4v2h2v-2h-2zm4 0v2h2v-2h-2zm16 0v2h2v-2h-2zm4 0v2h2v-2h-2zm4 0v2h2v-2h-2zm4 0v2h2v-2h-2zm16 0v2h2v-2h-2zm4 0v2h2v-2h-2zm-11 2c.3 0 .5.1.7.3s.3.4.3.7v10h2v-8c0-.3.1-.5.3-.7.4-.4 1-.4 1.4 0 .2.2.3.4.3.7v8h2v-6c0-.3.1-.5.3-.7.4-.4 1-.4 1.4 0 .2.2.3.4.3.7v12.8l-3 8v2.2h-10v-2.4l-.3-.3c-1.3-1.3-4.7-5.4-4.7-8.3v-5c0-.3.1-.5.3-.7.4-.4 1-.4 1.4 0 .2.2.3.4.3.7v4h2v-13c0-.3.1-.5.3-.7.4-.4 1-.4 1.4 0 .2.2.3.4.3.7v8h2v-10c0-.3.1-.5.3-.7s.4-.3.7-.3zm-28 0c.3 0 .5.1.7.3s.3.5.3.7v10h2v-8c0-.2.1-.5.3-.7.4-.4 1-.4 1.4 0 .2.2.3.5.3.7v13h2v-4c0-.2.1-.5.3-.7.4-.4 1-.4 1.4 0 .2.2.3.4.3.7v5c0 2.9-3.4 7-4.7 8.3l-.3.3v2.4h-10v-2.2l-2.99-8v-12.8c0-.2.11-.5.29-.7a.98.98 0 011.41 0c.19.2.29.5.29.7v6h2v-8c0-.2.1-.5.3-.7.4-.4 1-.4 1.4 0 .2.2.3.5.3.7v8h2v-10c0-.2.1-.5.3-.7s.4-.3.7-.3zm9 2v2h10v-2h-10zm-8 30v2h2v-2h-2zm24 0v2h2v-2h-2z"/></symbol><symbol id="logo" viewBox="0 0 175 29"><path d="M28.4 28L18 13.5 27.76 0h-7l-6.32 9.08L8 0H.64l9.84 13.8L.08 28h7.44l6.64-9.72L20.92 28h7.48z" fill="#14A0FF"/><path d="M65.1 13.4a6.71 6.71 0 003.6-6.16c0-4.44-3.6-7.28-10.3-7.28H45.3v28h13.9c7.2 0 11-2.8 11-7.6 0-3.64-2.04-6-5.04-6.96zm-7.28-9.36c3.6 0 5.64 1.28 5.64 3.88 0 2.56-2.04 3.84-5.64 3.84h-7.36V4.04h7.36zm1.04 19.8h-8.4v-8.08h8.4c3.92 0 6.04 1.24 6.04 4.04s-2.12 4.04-6.04 4.04zm37.2-6.48c0-6.68-4.56-11-10.8-11-6.36 0-11 4.56-11 10.9s4.64 11 11.8 11c3.68 0 6.68-1.2 8.6-3.48l-2.68-3.08a7.65 7.65 0 01-5.8 2.32c-3.72 0-6.32-2-6.92-5.12h16.8c.04-.48.08-1.08.08-1.48zm-10.8-7.04a5.81 5.81 0 016.04 5.2H79.2a5.9 5.9 0 016.08-5.2zm27.8 12.9a4.5 4.5 0 01-2.8.88c-1.92 0-2.96-1.12-2.96-3.2V10.7h5.72v-4h-5.72V1.82h-5V6.7h-3.52v4h3.52V21c0 4.72 2.68 7.2 7.36 7.2 1.8 0 3.6-.48 4.8-1.44l-1.4-3.56zm17.2 0a4.5 4.5 0 01-2.8.88c-1.92 0-2.96-1.12-2.96-3.2V10.7h5.72v-4h-5.72V1.82h-5V6.7h-3.52v4h3.52V21c0 4.72 2.68 7.2 7.36 7.2 1.8 0 3.6-.48 4.8-1.44l-1.4-3.56zm15.2 5c6.64 0 11.4-4.56 11.4-11s-4.76-10.9-11.4-10.9c-6.56 0-11.4 4.52-11.4 10.9s4.8 11 11.4 11zm0-4.28c-3.6 0-6.32-2.6-6.32-6.68s2.72-6.68 6.32-6.68c3.64 0 6.36 2.6 6.36 6.68s-2.72 6.68-6.36 6.68zm21.7-14.2V6.62h-4.76v21.4h5v-10.4c0-4.36 2.4-6.6 6.2-6.6.36 0 .72.04 1.16.12V6.38c-3.56 0-6.16 1.12-7.6 3.36z"/></symbol><symbol id="monitor" viewBox="0 0 64 60"><path d="M3.97 0a3.99 3.99 0 00-4 4v42c0 1.1.42 2.1 1.17 2.8.76.8 1.76 1.2 2.83 1.2h18.9l-.8 7h-1.1c-.8 0-1.6.3-2.1.9-.6.5-.9 1.3-.9 2.1h2c0-.3.1-.5.3-.7s.4-.3.7-.3h22c.3 0 .5.1.7.3s.3.4.3.7h2c0-.8-.3-1.6-.9-2.1-.6-.6-1.3-.9-2.1-.9h-1.1l-.8-7h18.9c1.1 0 2.1-.4 2.8-1.2.8-.7 1.2-1.7 1.2-2.8V4c0-1.07-.4-2.07-1.2-2.83A4.1 4.1 0 0059.97 0h-56zM4 1.97h56a2.05 2.05 0 012 2v36H2v-36a2 2 0 012-2zM5 5v6h14V5H5zm18 0v2h4V5h-4zm6 0v2h12V5H29zm20 0v2h2V5h-2zm4 0v2h2V5h-2zm4 0v2h2V5h-2zM7 7h10v2H7V7zm16 2v2h12V9H23zM5 13v2h14v-2H5zm39.3 1l-2 5h-5.7l-2 2h-5l-2-4h-7.3l-2 5h-6l-2 4H4.97v2h6.63l2-4h6.1l2-5h4.6l2 4h7.1l2-2h6.2l2-5h4.7l2 4H59v-2h-5.4l-2-4h-7.3zM5 17v2h7v-2H5zm40 5v15h2V22h-2zm4 2v13h2V24h-2zm-24 1v12h2V25h-2zm32 0v12h2V25h-2zm-20 1v11h2V26h-2zm-16 2v9h2v-9h-2zm32 0v9h2v-9h-2zm-40 1v8h2v-8h-2zm16 0v8h2v-8h-2zm12 1v7h2v-7h-2zm-24 2v5h2v-5h-2zm16 0v5h2v-5h-2zM5 33v4h2v-4H5zm4 2v2h2v-2H9zm-6.99 7h60v4c0 .5-.2 1-.6 1.4s-.9.6-1.4.6h-56c-.53 0-1.04-.2-1.41-.6s-.58-.9-.58-1.4v-4zm27 2v2h6v-2h-6zm-4.1 6h14.2l.8 7h-15.8l.8-7z"/></symbol><symbol id="rating-star" viewBox="0 0 19 18"><path d="M14.6 11.08l4.1-3.35a.82.82 0 00-.48-1.45l-5.28-.32a.83.83 0 01-.72-.52L10.28.52a.83.83 0 00-1.54 0L6.8 5.42c-.12.3-.4.5-.72.52l-5.3.32A.82.82 0 00.3 7.7l4.1 3.33c.24.2.36.54.28.84l-1.34 5.1a.82.82 0 001.24.89l4.46-2.84a.79.79 0 01.88 0l4.48 2.84a.82.82 0 001.24-.9L14.3 11.9a.81.81 0 01.3-.82z"/></symbol><symbol id="thumb-down" viewBox="0 0 15 16"><path d="M2.9 0c-.51 0-.98.3-1.23.76l-.53.99A9.65 9.65 0 000 6.31V8c0 1.1.84 2 1.88 2h3.53c-.47 1.3-.71 2.6-.71 4v.5c0 .8.61 1.5 1.37 1.5h.29c.61 0 1.15-.4 1.32-1.1l.18-.6c.36-1.4.95-2.6 1.77-3.7.29-.4.67-.6 1.17-.6h3c.7 0 1.2-.56 1.2-1.25v-7.5C15 .56 14.5 0 13.8 0h-2.3c-.5 0-.9.3-1.1.75L9.42.21A1.8 1.8 0 008.58 0H2.9zm8.6 1h2.3c.2 0 .3.11.3.25v7.5c0 .14-.1.25-.3.25h-2.3c-.1-.01-.2-.12-.2-.25v-7.5c0-.14.1-.25.2-.25zM2.9 1h5.68a.9.9 0 01.42.11l1.3.7v6.94c0 .1.1.2.1.29-.59.11-1.12.42-1.5.92A12 12 0 006.96 14l-.18.7c-.06.2-.23.3-.42.3h-.29c-.24 0-.44-.2-.44-.5V14c0-1.3.22-2.5.65-3.6.12-.3.08-.69-.09-.97A.91.91 0 005.41 9H1.88c-.51 0-.93-.45-.93-1V6.31a8.4 8.4 0 011.02-4.06l.52-.99A.49.49 0 012.9 1zm9.8 1c-.3 0-.5.22-.5.5s.2.5.5.5.5-.22.5-.5-.2-.5-.5-.5z"/></symbol><symbol id="thumb-up" viewBox="0 0 15 16"><path d="M8.64 0c-.61 0-1.15.44-1.31 1.06l-.19.7A10.63 10.63 0 015.37 5.4c-.28.38-.71.6-1.16.6H1.18A1.2 1.2 0 00.01 7.24v7.55c0 .6.52 1.2 1.17 1.2h2.33c.48 0 .89-.3 1.07-.7l1 .5c.26.1.55.2.84.2h5.68c.5 0 1-.3 1.2-.8l.6-1c.7-1.3 1.1-2.9 1.1-4.5V8c0-1.1-.8-2-1.9-2H9.59c.51-1.26.71-2.6.71-3.96v-.58C10.3.66 9.69 0 8.94 0h-.3zm0 1h.29c.12 0 .23.06.31.14a.44.44 0 00-.31-.13h-.29a.44.44 0 00-.42.33l-.18.69.18-.69c.06-.2.23-.34.42-.34zm-.6 1.03zm.79 4.56a.88.88 0 00.76.41h3.51c.3 0 .5.12.7.3a.97.97 0 00-.7-.29H9.59a.85.85 0 01-.23-.04.88.88 0 01-.53-.38zM1.18 7h2.34c.12.01.22.12.22.25v7.55c0 .1-.1.2-.23.2H1.18c-.13 0-.23-.1-.23-.2V7.25c0-.14.1-.25.23-.25zm1.15 6c-.26 0-.47.2-.47.5s.21.5.47.5.47-.2.47-.5-.21-.5-.47-.5z"/><path d="M12.2 15.1H6.5c-.1 0-.3 0-.4-.1l-1.3-.7V7.29c0-.1-.1-.2-.1-.3.6-.1 1.1-.4 1.5-.9.9-1.2 1.5-2.49 1.9-3.99l.2-.7c.1-.2.2-.3.4-.3H9c.2 0 .4.2.4.5v.5c0 1.3-.2 2.49-.6 3.59-.1.3-.1.7.1.9.2.3.4.5.8.5h3.5c.5 0 .9.4.9 1v1.7c0 1.41-.3 2.81-1 4.01l-.5 1c-.1.2-.3.3-.4.3z" fill="#fff"/></symbol><symbol id="twitter" viewBox="0 0 20 16"><path d="M20 1.92c-.75.33-1.54.55-2.34.64A4.2 4.2 0 0019.54.32c-.83.47-1.73.8-2.66.96A4.11 4.11 0 0013.91 0a4 4 0 00-4.06 4v.96A11.62 11.62 0 011.41.8c-.33.58-.5 1.25-.47 1.92 0 1.41.62 2.63 1.72 3.36A4.25 4.25 0 01.78 5.6v.16c0 1.96 1.56 3.47 3.44 3.84-.35.1-.72.15-1.09.16-.26.02-.52.02-.78 0a3.91 3.91 0 003.75 2.72 8.02 8.02 0 01-5 1.76c-.33 0-.77-.13-1.09-.16A12.28 12.28 0 006.42 16c7.54 0 11.6-6.18 11.6-11.5v-.48a8.2 8.2 0 002.03-2.08z"/></symbol></svg>